HIERARCHY
ROOT Hips
{
  OFFSET 3.13124 94.3669 -3.18751
  CHANNELS  6 Xposition Yposition Zposition Zrotation Xrotation Yrotation
  JOINT LeftUpLeg
  {
    OFFSET 8.64259 1.95398 -2.38835
    CHANNELS 3 Zrotation Xrotation Yrotation
    JOINT LeftLeg
    {
      OFFSET 43.7702 0 0
      CHANNELS 3 Zrotation Xrotation Yrotation
      JOINT LeftFoot
      {
        OFFSET 40.6238 0 0
        CHANNELS 3 Zrotation Xrotation Yrotation
        JOINT LeftToeBase
        {
          OFFSET 12.7242 0 0
          CHANNELS 3 Zrotation Xrotation Yrotation
          End Site
          {
            OFFSET 0 0 0
          }
        }
      }
    }
  }
  JOINT RightUpLeg
  {
    OFFSET -8.2249 1.95398 -2.59336
    CHANNELS 3 Zrotation Xrotation Yrotation
    JOINT RightLeg
    {
      OFFSET 43.5653 0 0
      CHANNELS 3 Zrotation Xrotation Yrotation
      JOINT RightFoot
      {
        OFFSET 40.6238 0 0
        CHANNELS 3 Zrotation Xrotation Yrotation
        JOINT RightToeBase
        {
          OFFSET 12.7242 0 0
          CHANNELS 3 Zrotation Xrotation Yrotation
          End Site
          {
            OFFSET 0 0 0
          }
        }
      }
    }
  }
  JOINT Spine
  {
    OFFSET 0.165834 0.87714 6.61349
    CHANNELS 3 Zrotation Xrotation Yrotation
    JOINT Spine1
    {
      OFFSET 7.38962 1.71661e-005 0
      CHANNELS 3 Zrotation Xrotation Yrotation
      JOINT Spine2
      {
        OFFSET 11.9445 1.14441e-005 0
        CHANNELS 3 Zrotation Xrotation Yrotation
        JOINT Spine3
        {
          OFFSET 14.7254 4.19617e-005 0
          CHANNELS 3 Zrotation Xrotation Yrotation
          JOINT Spine4
          {
            OFFSET 10.9679 0 0
            CHANNELS 3 Zrotation Xrotation Yrotation
            JOINT RightShoulder
            {
              OFFSET 2.46616 -1.6653 3.69651
              CHANNELS 3 Zrotation Xrotation Yrotation
              JOINT RightArm
              {
                OFFSET 13.0012 0 0
                CHANNELS 3 Zrotation Xrotation Yrotation
                JOINT RightForeArm
                {
                  OFFSET 28.7848 1.52588e-005 0
                  CHANNELS 3 Zrotation Xrotation Yrotation
                  JOINT RightHand
                  {
                    OFFSET 26.5688 1.52588e-005 0
                    CHANNELS 3 Zrotation Xrotation Yrotation
                    End Site
                    {
                      OFFSET 0 0 0
                    }
                  }
                }
              }
            }
            JOINT LeftShoulder
            {
              OFFSET 2.38034 -1.29275 -3.75231
              CHANNELS 3 Zrotation Xrotation Yrotation
              JOINT LeftArm
              {
                OFFSET 16.3182 6.10352e-005 0
                CHANNELS 3 Zrotation Xrotation Yrotation
                JOINT LeftForeArm
                {
                  OFFSET 27.0901 0 0
                  CHANNELS 3 Zrotation Xrotation Yrotation
                  JOINT LeftHand
                  {
                    OFFSET 24.5451 1.52588e-005 0
                    CHANNELS 3 Zrotation Xrotation Yrotation
                    End Site
                    {
                      OFFSET 0 0 0
                    }
                  }
                }
              }
            }
            JOINT Neck
            {
              OFFSET 5.0226 -0.0266342 0
              CHANNELS 3 Zrotation Xrotation Yrotation
              JOINT Head
              {
                OFFSET 6.69363 2.86102e-005 0
                CHANNELS 3 Zrotation Xrotation Yrotation
                End Site
                {
                  OFFSET 0 0 0
                }
              }
            }
          }
        }
      }
    }
  }
}
MOTION
Frames:	12
Frame Time:	0.0333333
3.02909 97.7328 -20.5701 41.9677 -89.9964 42.0303 -171.625 2.82553 92.8235 -8.70485 8.28301 0.84227 63.2582 1.66438 0.86981 28.7808 6.10442e-006 7.96766e-006 178.731 1.84987 87.8285 -7.40706 -1.18224 -0.0623146 62.6349 -1.28331 -0.649559 28.7808 1.55698e-005 2.52602e-005 0.00502844 6.34022 -90.063 14.1935 3.66739e-005 0.00655864 2.52256 3.58024e-005 -2.18898e-005 -20.0126 3.60927e-005 -0.000818539 4.98479e-005 3.71168e-005 -0.000830814 100.908 -18.4973 -85.2858 -3.35781 41.2037 -15.9744 1.24822 0.339473 -4.67852 -5.37983 -0.320016 -0.0162403 -79.0421 -21.1726 94.1708 8.59918 -39.4101 -10.2581 1.43143 40.0507 -3.72988 -0.249321 -0.0138126 -0.533346 1.76211 -0.00264817 -0.0098618 -7.42104 0.00265126 0.00934209 
3.03489 97.7462 -20.6153 17.4771 -89.9612 17.5833 -171.629 2.79754 92.857 -8.49023 8.22297 0.810811 63.1542 1.64946 0.864042 28.7808 6.10442e-006 7.96766e-006 178.688 1.06433 87.8754 -5.64022 -1.19679 -0.0623149 61.7668 -1.26195 -0.621879 28.7808 1.55698e-005 2.52602e-005 0.00826067 6.34073 -90.1067 14.1925 -0.000663473 0.00655864 2.52151 -0.000660588 0.000346843 -20.0136 -0.00073947 -0.000818539 -0.000994823 -0.000739637 -0.000830814 100.904 -18.5908 -85.2107 -3.36004 41.231 -16.0928 1.24746 0.339484 -4.65509 -5.37983 -0.320016 -0.0162403 -79.0301 -21.0004 94.235 8.45793 -39.3424 -10.3724 1.07138 40.0504 -3.25417 0.724796 -0.0146888 -1.54186 1.88539 -0.0373757 -0.157122 -7.56607 0.0432656 0.146539 
3.04421 97.742 -20.6509 145.641 -89.9465 145.689 -171.642 2.83273 92.7983 -8.71225 8.25863 0.837072 63.2065 1.63655 0.853052 28.7808 6.10442e-006 7.96766e-006 178.712 1.79676 87.8102 -7.29158 -1.21441 -0.0623153 62.5604 -1.25913 -0.63416 28.7808 1.55698e-005 2.52602e-005 -0.00540956 6.35431 -90.0602 14.1653 -0.0191794 0.00655864 2.49438 -0.0187682 0.00972575 -20.0408 -0.0209657 -0.000818539 -0.0281374 -0.0209683 -0.000830815 100.905 -18.5828 -85.2859 -3.35466 41.2076 -16.0397 1.27249 0.339483 -4.65702 -5.37983 -0.320016 -0.0162403 -79.0058 -20.9119 94.2407 8.51216 -39.3326 -10.283 1.43137 39.7933 -3.77351 -0.484895 -0.0283329 -0.612222 1.86136 0.039418 -0.152579 -7.47208 0.0584259 0.106902 
3.04742 97.7445 -20.6879 111.386 -89.9732 111.46 -171.636 2.87798 92.8189 -8.66799 8.26768 0.827452 63.1595 1.63596 0.851988 28.7808 6.10442e-006 7.96766e-006 178.717 1.68727 87.8351 -6.93609 -1.14233 -0.0623137 62.3394 -1.23285 -0.615351 28.7808 1.55698e-005 2.52602e-005 -0.00648162 6.35644 -90.0727 14.1611 -0.024 0.0063826 2.49016 -0.0236922 0.00744703 -20.045 -0.0248127 -0.00114785 -0.0323496 -0.0248208 -0.0011589 100.921 -18.6148 -85.2416 -3.33431 41.2055 -16.0911 1.26063 0.339494 -4.63534 -5.37983 -0.320016 -0.0162403 -78.9559 -20.8014 94.3492 8.45445 -39.2834 -10.3337 1.43262 39.5739 -3.82854 -0.59069 -0.0330682 -0.67039 2.05956 0.0392073 -0.228516 -7.6616 0.0685976 0.173813 
3.06178 97.7524 -20.7141 57.4137 -89.9574 57.5167 -171.651 2.84785 92.8287 -8.49623 8.27493 0.827278 63.0928 1.64036 0.854642 28.7808 6.10442e-006 7.96766e-006 178.676 1.14341 87.8497 -5.70651 -1.20233 -0.0623151 61.7204 -1.27755 -0.630255 28.7808 1.55698e-005 2.52602e-005 -0.00709873 6.35972 -90.1125 14.1551 -0.0325057 0.00332368 2.48415 -0.0323297 0.00477807 -20.051 -0.0320088 -0.00660527 -0.0383597 -0.0319987 -0.00659823 100.937 -18.5848 -85.1964 -3.30813 41.2052 -16.1144 1.26065 0.33949 -4.6432 -5.37983 -0.320016 -0.0162403 -78.8766 -20.7335 94.5311 8.33883 -39.2194 -10.4814 1.10594 39.3172 -3.58437 0.385595 -0.00859721 -0.970756 2.28933 0.0572307 -0.20379 -7.85033 0.0841559 0.185182 
3.07108 97.7423 -20.7254 115.83 -89.9446 115.88 -171.658 2.92325 92.7744 -8.75886 8.27742 0.838309 63.1942 1.642 0.855822 28.7808 6.10442e-006 7.96766e-006 178.716 2.0396 87.7929 -7.65648 -1.19911 -0.062315 62.6528 -1.30779 -0.663837 28.7808 1.55698e-005 2.52602e-005 -0.0136245 6.36403 -90.0649 14.1459 -0.038845 -0.00327743 2.47494 -0.0389514 -0.00076499 -20.0602 -0.0360699 -0.0148044 -0.0475711 -0.0360664 -0.0148017 100.909 -18.5479 -85.273 -3.39342 41.2122 -15.9585 1.26048 0.339486 -4.65214 -5.37983 -0.320016 -0.0162403 -78.8991 -20.7715 94.4798 8.49754 -39.2258 -10.342 1.0934 39.2546 -3.56649 0.287638 -0.017219 -1.21348 2.14894 0.0862016 -0.125568 -7.60911 0.103129 0.10763 
3.09055 97.7628 -20.7367 57.5343 -89.9424 57.6323 -171.668 2.89494 92.8017 -8.55174 8.29711 0.840995 63.081 1.63563 0.854789 28.7808 6.10442e-006 7.96766e-006 178.663 1.13625 87.8308 -5.64241 -1.21122 -0.0623153 61.6584 -1.2195 -0.594398 28.7808 1.55698e-005 2.52602e-005 -0.012085 6.36479 -90.1147 14.1444 -0.0450616 -0.00841866 2.47346 -0.0453828 -0.00645097 -20.0617 -0.0404636 -0.0215665 -0.0490504 -0.0404572 -0.0215739 100.928 -18.474 -85.2337 -3.32164 41.1869 -15.9977 1.26029 0.339486 -4.65138 -5.37983 -0.320016 -0.0162403 -78.8402 -20.688 94.6063 8.3831 -39.2323 -10.4241 1.04924 39.1172 -3.5312 0.472979 -0.0079223 -1.04513 2.36191 0.104852 -0.117706 -7.77906 0.119907 0.0987998 
3.10765 97.7436 -20.7496 25.6229 -89.8428 25.7245 -171.692 2.99587 92.7751 -8.50569 8.25496 0.82026 63.1027 1.68967 0.887956 28.7808 6.10442e-006 7.96766e-006 178.657 1.222 87.8186 -5.57341 -1.18641 -0.0623147 61.6789 -1.20897 -0.59037 28.7808 1.55698e-005 2.52602e-005 -0.0118539 6.3532 -90.1228 14.1677 -0.0470015 -0.012114 2.4967 -0.0474936 -0.0100329 -20.0385 -0.0421471 -0.0256826 -0.025812 -0.0421405 -0.0256807 100.924 -18.3686 -85.2514 -3.28279 41.1551 -15.9213 1.26085 0.339491 -4.64085 -5.37983 -0.320016 -0.0162403 -78.812 -20.6709 94.6679 8.42439 -39.205 -10.4215 1.07562 39.0187 -3.56434 0.21411 -0.0205807 -1.27161 2.40215 0.105605 -0.0646026 -7.86892 0.116357 0.0350848 
3.14433 97.7677 -20.7415 54.4451 -89.8545 54.5168 -171.723 2.94606 92.725 -8.54369 8.29302 0.847992 63.0622 1.6557 0.867171 28.7808 6.10442e-006 7.96766e-006 178.631 1.22155 87.7646 -5.72172 -1.13654 -0.0623136 61.6921 -1.18901 -0.576754 28.7808 1.55698e-005 2.52602e-005 -0.0149829 6.35731 -90.123 14.1594 -0.0526764 -0.00939442 2.48846 -0.0530206 -0.00706749 -20.0467 -0.0427782 -0.0247903 -0.0340471 -0.0427722 -0.0247882 100.9 -18.3394 -85.317 -3.36403 41.1322 -15.7508 1.27738 0.339473 -4.67778 -5.37983 -0.320016 -0.0162403 -78.813 -20.6436 94.662 8.42671 -39.204 -10.3783 1.14698 38.86 -3.64922 -0.0247297 -0.0261118 -1.22443 2.28292 0.104546 -0.0397941 -7.74376 0.110293 0.0177697 
3.17077 97.7589 -20.7349 40.292 -89.7328 40.3641 -171.731 3.07625 92.6989 -8.55696 8.34402 0.83473 63.0563 1.71099 0.898201 28.7808 6.10442e-006 7.96766e-006 178.627 1.2742 87.7466 -5.60107 -1.11872 -0.0623132 61.6819 -1.17376 -0.569271 28.7808 1.55698e-005 2.52602e-005 -0.0142735 6.34786 -90.121 14.1783 -0.0544909 -0.026885 2.50732 -0.0552236 -0.0244752 -20.0278 -0.0427332 -0.0419347 -0.0151919 -0.0427282 -0.0419459 100.934 -18.2674 -85.2414 -3.32809 41.1337 -15.8 1.26451 0.33948 -4.66385 -5.37983 -0.320016 -0.0162403 -78.7834 -20.7687 94.7333 8.44091 -39.2596 -10.4982 1.11544 38.7928 -3.60195 0.0441795 -0.0252692 -1.20536 2.39017 0.0998609 0.128367 -7.84326 0.0842556 -0.11869 
3.21574 97.7562 -20.7127 48.7655 -89.6459 48.8299 -171.743 3.08192 92.664 -8.52549 8.40691 0.832247 63.0759 1.68151 0.881488 28.7808 6.10442e-006 7.96766e-006 178.609 1.26048 87.7111 -5.57167 -1.02989 -0.062113 61.7067 -1.14773 -0.55472 28.7808 1.55698e-005 2.52602e-005 -0.0148937 6.34713 -90.1231 14.1797 -0.0566612 -0.0316725 2.50879 -0.0580096 -0.0291596 -20.0264 -0.0423882 -0.047248 -0.0137218 -0.0423848 -0.0472421 100.948 -18.3317 -85.2017 -3.45045 41.1168 -15.7462 1.29917 0.339479 -4.6667 -5.37983 -0.320016 -0.0162403 -78.789 -20.7298 94.7188 8.39731 -39.2109 -10.4908 1.0771 38.7503 -3.58803 0.0867207 -0.0224461 -1.25996 2.44881 0.0793333 0.0757412 -7.91541 0.0685643 -0.040886 
3.25895 97.7522 -20.6902 55.3884 -89.5531 55.4486 -171.739 3.10994 92.6346 -8.55974 8.52073 0.820605 63.1106 1.77813 0.93672 28.7808 6.10442e-006 7.96766e-006 178.594 1.21695 87.6749 -5.50531 -0.97642 -0.0588253 61.7476 -1.17892 -0.574808 28.7808 1.55698e-005 2.52602e-005 -0.0160729 6.34523 -90.1238 14.1835 -0.0623223 -0.0505411 2.51255 -0.0644655 -0.0477579 -20.0226 -0.0421197 -0.0669086 -0.00994515 -0.0421179 -0.0669344 100.939 -18.3385 -85.2217 -3.58263 41.1189 -15.6617 1.32091 0.339488 -4.64785 -5.37983 -0.320016 -0.0162403 -78.8059 -20.8385 94.6857 8.43127 -39.2009 -10.4776 1.0518 38.6312 -3.60916 -0.0233469 -0.0231746 -1.08468 2.45108 0.0747518 0.15737 -7.91727 0.0523669 -0.0582427 
